<mxfile host="65bd71144e">
    <diagram id="lwnaIWOHNoCwcnuBOauB" name="Page-1">
        <mxGraphModel dx="892" dy="565" grid="1" gridSize="10" guides="1" tooltips="1" connect="1" arrows="1" fold="1" page="1" pageScale="1" pageWidth="850" pageHeight="1100" math="0" shadow="0">
            <root>
                <mxCell id="0"/>
                <mxCell id="1" parent="0"/>
                <mxCell id="2" value="CHECKBOOK MODEL&lt;br&gt;NAME: STR&lt;br&gt;START: DATETIME&lt;br&gt;END: DATETIME" style="rounded=1;whiteSpace=wrap;html=1;fillColor=#d80073;fontColor=#ffffff;strokeColor=#A50040;" parent="1" vertex="1">
                    <mxGeometry x="90" y="120" width="252" height="161" as="geometry"/>
                </mxCell>
                <mxCell id="3" value="WORKER&lt;br&gt;NAME: STR" style="rounded=1;whiteSpace=wrap;html=1;fillColor=#d80073;fontColor=#ffffff;strokeColor=#A50040;" parent="1" vertex="1">
                    <mxGeometry x="510" y="110" width="242" height="171" as="geometry"/>
                </mxCell>
                <mxCell id="17" style="edgeStyle=none;html=1;entryX=0.5;entryY=1;entryDx=0;entryDy=0;fillColor=#f8cecc;strokeColor=#b85450;gradientColor=#ea6b66;curved=1;" parent="1" source="11" target="12" edge="1">
                    <mxGeometry relative="1" as="geometry">
                        <Array as="points">
                            <mxPoint x="150" y="930"/>
                        </Array>
                    </mxGeometry>
                </mxCell>
                <mxCell id="18" style="edgeStyle=none;html=1;entryX=0.5;entryY=1;entryDx=0;entryDy=0;fillColor=#f8cecc;strokeColor=#b85450;gradientColor=#ea6b66;curved=1;" parent="1" source="11" target="15" edge="1">
                    <mxGeometry relative="1" as="geometry">
                        <Array as="points">
                            <mxPoint x="695" y="930"/>
                        </Array>
                    </mxGeometry>
                </mxCell>
                <mxCell id="25" style="edgeStyle=none;html=1;fillColor=#f8cecc;strokeColor=#b85450;gradientColor=#ea6b66;curved=1;" parent="1" source="11" edge="1">
                    <mxGeometry relative="1" as="geometry">
                        <mxPoint x="425" y="720" as="targetPoint"/>
                    </mxGeometry>
                </mxCell>
                <mxCell id="11" value="" style="ellipse;whiteSpace=wrap;html=1;aspect=fixed;fillColor=#e3c800;fontColor=#000000;strokeColor=#B09500;rounded=1;" parent="1" vertex="1">
                    <mxGeometry x="385" y="890" width="80" height="80" as="geometry"/>
                </mxCell>
                <mxCell id="20" style="edgeStyle=none;html=1;exitX=0.5;exitY=0;exitDx=0;exitDy=0;curved=1;" parent="1" source="12" edge="1">
                    <mxGeometry relative="1" as="geometry">
                        <mxPoint x="216" y="360" as="targetPoint"/>
                        <Array as="points">
                            <mxPoint x="150" y="360"/>
                        </Array>
                    </mxGeometry>
                </mxCell>
                <mxCell id="12" value="CREATE CHECKIN&lt;br&gt;SET" style="shape=hexagon;perimeter=hexagonPerimeter2;whiteSpace=wrap;html=1;fixedSize=1;fillColor=#60a917;fontColor=#ffffff;strokeColor=#2D7600;rounded=1;" parent="1" vertex="1">
                    <mxGeometry x="70" y="500" width="160" height="100" as="geometry"/>
                </mxCell>
                <mxCell id="19" style="edgeStyle=none;html=1;exitX=0.5;exitY=0;exitDx=0;exitDy=0;entryX=0.432;entryY=1.01;entryDx=0;entryDy=0;entryPerimeter=0;curved=1;" parent="1" source="13" target="2" edge="1">
                    <mxGeometry relative="1" as="geometry">
                        <mxPoint x="210" y="360" as="targetPoint"/>
                        <Array as="points">
                            <mxPoint x="320" y="360"/>
                            <mxPoint x="199" y="360"/>
                        </Array>
                    </mxGeometry>
                </mxCell>
                <mxCell id="26" style="edgeStyle=none;html=1;exitX=0.5;exitY=1;exitDx=0;exitDy=0;curved=1;" parent="1" source="13" edge="1">
                    <mxGeometry relative="1" as="geometry">
                        <mxPoint x="420" y="720" as="targetPoint"/>
                        <Array as="points">
                            <mxPoint x="320" y="720"/>
                        </Array>
                    </mxGeometry>
                </mxCell>
                <mxCell id="13" value="GET CHECKIN" style="shape=hexagon;perimeter=hexagonPerimeter2;whiteSpace=wrap;html=1;fixedSize=1;fillColor=#008a00;fontColor=#ffffff;strokeColor=#005700;rounded=1;" parent="1" vertex="1">
                    <mxGeometry x="260" y="570" width="120" height="80" as="geometry"/>
                </mxCell>
                <mxCell id="22" style="edgeStyle=none;html=1;entryX=0.533;entryY=1.003;entryDx=0;entryDy=0;entryPerimeter=0;curved=1;" parent="1" source="14" target="3" edge="1">
                    <mxGeometry relative="1" as="geometry">
                        <mxPoint x="510" y="360" as="targetPoint"/>
                        <Array as="points">
                            <mxPoint x="520" y="360"/>
                            <mxPoint x="639" y="360"/>
                        </Array>
                    </mxGeometry>
                </mxCell>
                <mxCell id="27" style="edgeStyle=none;html=1;exitX=0.5;exitY=1;exitDx=0;exitDy=0;curved=1;" parent="1" source="14" edge="1">
                    <mxGeometry relative="1" as="geometry">
                        <mxPoint x="430" y="720" as="targetPoint"/>
                        <Array as="points">
                            <mxPoint x="510" y="720"/>
                        </Array>
                    </mxGeometry>
                </mxCell>
                <mxCell id="14" value="GET WORKER" style="shape=hexagon;perimeter=hexagonPerimeter2;whiteSpace=wrap;html=1;fixedSize=1;fillColor=#008a00;fontColor=#ffffff;strokeColor=#005700;rounded=1;" parent="1" vertex="1">
                    <mxGeometry x="450" y="570" width="120" height="80" as="geometry"/>
                </mxCell>
                <mxCell id="24" style="edgeStyle=none;html=1;curved=1;" parent="1" source="15" edge="1">
                    <mxGeometry relative="1" as="geometry">
                        <mxPoint x="610" y="360" as="targetPoint"/>
                        <Array as="points">
                            <mxPoint x="695" y="360"/>
                        </Array>
                    </mxGeometry>
                </mxCell>
                <mxCell id="15" value="CREATE WORKER&lt;br&gt;SET" style="shape=hexagon;perimeter=hexagonPerimeter2;whiteSpace=wrap;html=1;fixedSize=1;fillColor=#60a917;fontColor=#ffffff;strokeColor=#2D7600;rounded=1;" parent="1" vertex="1">
                    <mxGeometry x="610" y="500" width="170" height="110" as="geometry"/>
                </mxCell>
            </root>
        </mxGraphModel>
    </diagram>
</mxfile>